<?xml version="1.0" encoding="UTF-8" standalone="no"?>
<!-- Created with Inkscape (http://www.inkscape.org/) -->

<svg
   width="520.85205mm"
   height="158.75mm"
   viewBox="0 0 520.85205 158.75"
   version="1.1"
   id="svg1"
   inkscape:version="1.3.2 (091e20ef0f, 2023-11-25)"
   sodipodi:docname="arafi_banner.svg"
   xml:space="preserve"
   xmlns:inkscape="http://www.inkscape.org/namespaces/inkscape"
   xmlns:sodipodi="http://sodipodi.sourceforge.net/DTD/sodipodi-0.dtd"
   xmlns:xlink="http://www.w3.org/1999/xlink"
   xmlns="http://www.w3.org/2000/svg"
   xmlns:svg="http://www.w3.org/2000/svg"><sodipodi:namedview
     id="namedview1"
     pagecolor="#ffffff"
     bordercolor="#000000"
     borderopacity="0.25"
     inkscape:showpageshadow="2"
     inkscape:pageopacity="0.0"
     inkscape:pagecheckerboard="0"
     inkscape:deskcolor="#d1d1d1"
     inkscape:document-units="mm"
     inkscape:zoom="0.36569515"
     inkscape:cx="697.30211"
     inkscape:cy="400.6069"
     inkscape:window-width="1920"
     inkscape:window-height="1043"
     inkscape:window-x="1920"
     inkscape:window-y="0"
     inkscape:window-maximized="1"
     inkscape:current-layer="layer1" /><defs
     id="defs1"><linearGradient
       id="linearGradient1"
       inkscape:collect="always"><stop
         style="stop-color:#351740;stop-opacity:1;"
         offset="0"
         id="stop4" /><stop
         style="stop-color:#1a1931;stop-opacity:1;"
         offset="0.31164429"
         id="stop1" /><stop
         style="stop-color:#1a1931;stop-opacity:1;"
         offset="0.69471049"
         id="stop3" /><stop
         style="stop-color:#2c1740;stop-opacity:1"
         offset="1"
         id="stop2" /></linearGradient><linearGradient
       inkscape:collect="always"
       xlink:href="#linearGradient1"
       id="linearGradient2"
       x1="-14.644969"
       y1="24.525391"
       x2="253.07497"
       y2="200.64226"
       gradientUnits="userSpaceOnUse"
       gradientTransform="matrix(1.9382536,0,0,0.88161754,-61.527054,35.21664)"
       spreadMethod="reflect" /><linearGradient
       id="linearGradient901"><stop
         style="stop-color:#15e0f6;stop-opacity:1;"
         offset="0"
         id="stop905" /><stop
         style="stop-color:#514dc4;stop-opacity:1;"
         offset="1"
         id="stop907" /></linearGradient><linearGradient
       inkscape:collect="always"
       xlink:href="#linearGradient901-6"
       id="linearGradient903-3"
       x1="-294.3067"
       y1="159.09586"
       x2="133.14391"
       y2="274.93811"
       gradientUnits="userSpaceOnUse"
       gradientTransform="matrix(1.0000027,0,0,1.0000027,-275.3455,-177.52924)" /><linearGradient
       id="linearGradient901-6"><stop
         style="stop-color:#19dff3;stop-opacity:1;"
         offset="0"
         id="stop905-7" /><stop
         style="stop-color:#19dff3;stop-opacity:1;"
         offset="0.33816478"
         id="stop13834" /><stop
         style="stop-color:#5460c2;stop-opacity:1;"
         offset="1"
         id="stop907-5" /></linearGradient></defs><g
     inkscape:label="Layer 1"
     inkscape:groupmode="layer"
     id="layer1"
     transform="translate(91.123489,-54.034721)"><rect
       style="fill:url(#linearGradient2);stroke-width:0.156983;stroke-linecap:round;stroke-linejoin:round;stroke-dasharray:none;paint-order:stroke fill markers"
       id="rect1"
       width="520.85205"
       height="158.75"
       x="-91.123489"
       y="54.034721" /><g
       id="g1"
       transform="matrix(0.84270148,0,0,0.84270148,26.631035,20.985148)"><g
         id="g898"
         transform="matrix(0.17915508,0,0,0.17915508,163.76992,141.8029)"><g
           aria-label="AraFi"
           id="text756"
           style="font-weight:900;font-size:293.971px;font-family:Lato;-inkscape-font-specification:'Lato Heavy';text-align:center;text-anchor:middle;fill:#ffffff;stroke-width:7.71578;stroke-linecap:round;stroke-linejoin:round;paint-order:stroke fill markers"><path
             d="M 91.783676,-21.983768 68.706952,-87.245331 q -2.057797,-5.144493 -4.409565,-12.052812 -2.204782,-6.908317 -4.262579,-14.992517 -2.057797,8.23118 -4.409566,15.286488 -2.204782,6.908319 -4.262579,12.052812 l -22.929739,64.967592 z m 74.080694,80.989013 h -34.24762 q -5.73244,0 -9.40707,-2.645739 -3.52766,-2.792724 -5.29148,-7.055304 L 102.51362,8.5892173 H 17.555997 L 3.1514175,49.304202 q -1.4698551,3.674638 -5.1444927,6.761333 -3.6746376,2.93971 -9.2600868,2.93971 h -34.541593 l 83.34078,-213.275965 h 45.12455 z"
             style="font-weight:800;-inkscape-font-specification:'Lato Ultra-Bold';fill:#ffffff"
             id="path758" /><path
             d="m 217.89665,-67.549274 q 7.20229,-12.934724 16.60937,-20.430985 9.40707,-7.496261 22.04782,-7.496261 10.28899,0 16.75635,4.850522 l -2.64574,29.985043 q -0.73493,2.93971 -2.35177,4.115594 -1.46985,1.028898 -4.11559,1.028898 -2.35177,0 -6.76134,-0.587942 -4.40956,-0.734927 -8.23118,-0.734927 -5.58545,0 -9.99502,1.61684 -4.26258,1.616841 -7.64324,4.556551 -3.38067,2.93971 -6.1734,7.20229 -2.64573,4.262579 -4.9975,9.701043 v 92.747853 h -40.568 V -92.53681 h 23.95864 q 6.17339,0 8.52516,2.204783 2.35176,2.204783 3.38066,7.643246 z"
             style="font-weight:800;-inkscape-font-specification:'Lato Ultra-Bold';fill:#ffffff"
             id="path760" /><path
             d="m 368.11535,-4.3455071 q -14.84553,0.7349275 -24.69356,2.6457391 -9.84803,1.76382604 -15.72745,4.7035361 -5.73243,2.9397101 -8.23119,6.7613332 -2.35177,3.6746377 -2.35177,8.0842027 0,8.81913 4.85053,12.493768 4.9975,3.674638 13.81663,3.674638 10.142,0 17.49128,-3.527653 7.49626,-3.674637 14.84553,-11.317883 z M 285.5095,-71.517882 q 13.37568,-12.052812 29.54409,-17.932232 16.1684,-6.026406 34.98255,-6.026406 13.52266,0 24.10562,4.409565 10.72994,4.409566 18.07922,12.346783 7.49626,7.790232 11.46487,18.667159 3.96861,10.876927 3.96861,23.811652 v 95.246606 h -18.52018 q -5.73243,0 -8.81913,-1.61684 -2.93971,-1.616841 -4.85052,-6.761334 l -3.23368,-9.701043 q -5.73244,4.997507 -11.1709,8.81913 -5.29148,3.821624 -11.02391,6.467363 -5.73244,2.498753 -12.34678,3.821623 -6.46737,1.322869 -14.55157,1.322869 -9.99501,0 -18.2262,-2.645739 -8.23119,-2.645739 -14.2576,-7.790232 -5.87942,-5.291478 -9.1131,-13.081709 -3.23368,-7.790232 -3.23368,-17.932232 0,-8.378174 4.26258,-16.7563474 4.26258,-8.3781737 14.55157,-15.1395066 10.43597,-6.908319 27.63327,-11.317884 17.34429,-4.556551 43.36072,-5.144493 v -7.790231 q 0,-14.257594 -6.0264,-20.871942 -6.02641,-6.761333 -17.34429,-6.761333 -8.37817,0 -13.96362,2.057797 -5.58545,1.910811 -9.84803,4.262579 -4.1156,2.204783 -7.79023,4.26258 -3.67464,1.910812 -8.52516,1.910812 -4.26258,0 -7.20229,-2.057797 -2.79273,-2.204783 -4.70354,-5.144493 z"
             style="font-weight:800;-inkscape-font-specification:'Lato Ultra-Bold';fill:#ffffff"
             id="path762" /><path
             d="m 485.99711,-119.72913 v 58.941189 h 76.72643 v 34.688579 H 485.99711 V 59.005245 H 441.60748 V -154.27072 h 135.81461 v 34.54159 z"
             style="font-weight:800;-inkscape-font-specification:'Lato Ultra-Bold';fill:#ffffff"
             id="path764" /><path
             d="M 644.00606,-92.53681 V 59.005245 h -40.568 V -92.53681 Z m 4.85052,-43.06675 q 0,5.14449 -2.05779,9.55406 -2.0578,4.40956 -5.58545,7.79023 -3.38067,3.38066 -8.08421,5.29148 -4.55655,1.91081 -9.84803,1.91081 -4.9975,0 -9.55405,-1.91081 -4.40957,-1.91082 -7.79024,-5.29148 -3.38066,-3.38067 -5.43846,-7.79023 -1.91081,-4.40957 -1.91081,-9.55406 0,-5.14449 1.91081,-9.55406 2.0578,-4.55655 5.43846,-7.93722 3.38067,-3.38066 7.79024,-5.29148 4.55655,-1.91081 9.55405,-1.91081 5.29148,0 9.84803,1.91081 4.70354,1.91082 8.08421,5.29148 3.52765,3.38067 5.58545,7.93722 2.05779,4.40957 2.05779,9.55406 z"
             style="font-weight:800;-inkscape-font-specification:'Lato Ultra-Bold';fill:#ffffff"
             id="path766" /></g><path
           style="fill:url(#linearGradient903-3);fill-opacity:1;stroke-width:0.264583"
           d="m -346.47026,163.00691 c -2.17061,-0.10469 -4.42301,-0.25125 -5.00508,-0.32061 -0.58234,-0.0655 -2.96338,-0.25257 -5.29155,-0.40698 -17.35717,-1.14374 -34.84742,-3.42558 -50.1388,-6.53984 -2.54658,-0.51821 -5.1065,-1.03382 -5.68857,-1.14374 -1.81899,-0.34416 -4.53045,-1.0181 -12.83235,-3.18793 -7.94034,-2.07496 -16.20977,-4.72675 -26.19378,-8.39952 -12.3636,-4.54825 -28.46214,-12.4573 -39.55531,-19.4333 -13.18373,-8.29051 -24.15325,-17.02242 -34.87046,-27.75758 -2.88041,-2.88512 -5.363,-5.24574 -5.51664,-5.24574 -0.1531,0 -0.65431,0.39389 -1.11232,0.87546 -0.7276,0.76555 -10.90553,13.4202 -14.19476,17.65032 -0.65431,0.84274 -2.19468,2.76303 -3.42178,4.26872 -1.9098,2.34321 -6.65094,8.24838 -15.77649,19.64974 -1.15551,1.44354 -2.69614,3.36512 -3.42375,4.27004 -6.52046,8.11005 -8.74525,10.89441 -10.33078,12.92944 -4.09154,5.25138 -6.10523,7.67023 -6.71283,8.06333 -0.63468,0.41092 -0.6373,0.40699 -0.44886,-0.37556 0.17535,-0.7263 0.63207,-1.57296 3.28254,-6.08091 1.66772,-2.83683 5.44845,-9.48319 9.63252,-16.9333 1.38935,-2.47383 3.51155,-6.22434 4.71613,-8.33449 1.20394,-2.11002 2.75387,-4.84844 3.44273,-6.08535 1.46789,-2.63518 4.91675,-8.74382 12.02519,-21.29901 0.98931,-1.74623 2.59722,-4.60374 3.57437,-6.35009 0.97754,-1.74623 2.2821,-4.06798 2.89963,-5.15937 0.61638,-1.0914 1.79269,-3.17498 2.61162,-4.63017 0.8192,-1.45532 1.75971,-3.04948 2.09067,-3.5427 0.9265,-1.38112 0.78385,-2.12207 -0.80612,-4.1694 -5.25752,-6.7729 -11.1759,-16.5135 -16.48903,-27.13768 -1.94423,-3.88765 -3.53511,-7.12858 -3.53511,-7.202 0,-0.0785 -0.28659,-0.76163 -0.63468,-1.5307 -1.32826,-2.91927 -3.04373,-7.08645 -4.38755,-10.65728 -1.72895,-4.59471 -6.07279,-17.99682 -6.51733,-20.1084204 -0.0916,-0.43707 -0.45802,-1.80576 -0.81397,-3.04267 -0.68702,-2.38942 -1.04035,-3.90153 -2.53584,-10.84796 -1.33964,-6.2235396 -1.93899,-9.4021796 -2.56974,-13.6260196 -0.3049,-2.03739 -0.72498,-4.83536 -0.93305,-6.21779 -0.60197,-3.98305 -1.66941,-13.93996 -2.11172,-19.71151 -0.68179,-8.89365 -0.92651,-15.94138 -0.92651,-26.72297 2.6e-4,-14.14333 0.51168,-25.36437 1.74819,-38.36473 0.97231,-10.23225 1.17907,-12.21245 1.81166,-17.46252 0.94612,-7.85107 0.91341,-7.59772 1.46278,-11.24485 0.27481,-1.81899 0.75376,-5.15271 1.06783,-7.40837 0.94876,-6.83284 1.77684,-10.47657 2.26994,-9.98348 0.0785,0.0785 0.18844,5.25136 0.23032,11.48394 0.0785,10.89913 0.71974,23.70293 1.46264,29.059 0.14133,1.01942 0.3795,3.16176 0.52999,4.7626 0.43839,4.66196 1.67398,13.35487 2.65218,18.65308 2.67182,14.46982 4.44854,22.19488 7.60651,33.07307 0.65431,2.25553 1.3412,4.64782 1.52506,5.31615 1.50871,5.48103 5.45591,16.64972 8.70377,24.62656 3.05642,7.50717 3.34943,8.18569 6.09295,14.11047 3.53026,7.6237696 9.42116,18.9492496 11.85572,22.7925396 0.35594,0.56139 1.52625,2.4893904 2.60194,4.2852104 2.72141,4.54327 2.66317,4.45023 5.74445,9.1703 1.51997,2.32843 3.91383,5.84077 5.31968,7.80527 1.40572,1.9645 2.76198,3.89931 3.01375,4.29948 0.54309,0.86238 1.85721,1.01288 2.30632,0.26434 0.1518,-0.25518 1.50295,-2.6658 3.00054,-5.35789 1.49746,-2.6921 3.83558,-6.85928 5.19576,-9.26047 1.36005,-2.40106 2.96847,-5.25855 3.57424,-6.34996 0.60589,-1.09138 2.15072,-3.8298004 3.43369,-6.0854804 6.91476,-12.15697 8.28004,-14.57896 11.03718,-19.5791996 1.16337,-2.11002 2.21915,-3.96395 2.3457,-4.11994 0.13086,-0.15572 1.22749,-2.06095 2.44529,-4.23339 3.56979,-6.36526 5.22258,-9.22434 5.48771,-9.49287 0.46194,-0.46849 0.26042,-2.08359 -0.3795,-3.04164 -1.92014,-2.87006 -9.14544,-16.73465 -10.83133,-20.78418 -0.3625,-0.87286 -1.09663,-2.59945 -1.62859,-3.83636 -4.25183,-9.88245 -8.23542,-21.78999 -10.84284,-32.41156 -0.53523,-2.1829 -1.14112,-4.62362 -1.34422,-5.42397 -0.34548,-1.36109 -0.91472,-4.24202 -2.22021,-11.24484 -1.23664,-6.6342 -2.44332,-16.34705 -3.12251,-25.13549 -0.67394,-8.72551 -0.67,-32.40095 0.006,-41.80432 0.82837,-11.51274 2.18541,-22.62228 4.20135,-34.39594 0.77077,-4.5052 2.51568,-13.61662 3.11503,-16.27194 0.27874,-1.23665 0.82967,-3.67762 1.22357,-5.42398 0.73151,-3.24394 2.80306,-11.54283 3.82994,-15.34581 0.31538,-1.16468 0.72235,-2.71199 0.90687,-3.43958 0.35726,-1.41175 0.70142,-2.58179 2.96063,-10.05428 2.81328,-9.30745 7.37173,-22.74333 10.14379,-29.89795 0.45147,-1.16468 1.45321,-3.78349 2.22713,-5.82088 1.75291,-4.61421 5.14002,-12.9305 6.3306,-15.54317 0.49334,-1.08091 1.34316,-3.02736 1.88952,-4.32406 0.5457,-1.29685 2.12964,-4.79859 3.51849,-7.78173 1.3887,-2.98326 2.71054,-5.84077 2.93706,-6.35009 0.84407,-1.89449 10.58742,-21.12508 11.91213,-23.50913 1.84659,-3.32325 1.95076,-3.47845 2.33511,-3.47845 0.63075,0 0.32847,1.27852 -1.5447,6.51889 -1.74112,4.87228 -2.92242,8.46641 -4.64037,14.11873 -0.37689,1.23666 -0.89903,2.90384 -1.16207,3.7042 -0.26303,0.80087 -1.26412,4.25314 -2.22452,7.67283 -0.96052,3.41983 -1.87119,6.63446 -2.02391,7.14389 -0.37558,1.25236 -1.27328,4.71354 -2.74522,10.58336 -1.81638,7.24322 -2.39596,9.71115 -3.44809,14.6843 -0.52345,2.47395 -1.14374,5.33147 -1.37825,6.35009 -0.43314,1.8788 -0.56139,2.5581 -1.78994,9.39277 -1.27459,7.09744 -2.83499,16.96955 -3.17719,20.10841 -0.0916,0.79957 -0.39259,3.30062 -0.67918,5.55615 -1.53514,12.11432 -2.21629,24.04999 -2.2193,38.89396 -0.003,15.43217 0.5915,25.22722 2.24926,37.04172 0.29575,2.11002 0.60066,4.31268 0.67919,4.89475 0.26826,2.02627 1.4667,8.34234 2.88498,15.21365 0.96314,4.67191 3.38213,13.58769 5.63271,20.7698 0.64384,2.05336 2.9372,8.39847 4.01733,11.11255 0.46326,1.16468 1.07831,2.71199 1.36672,3.43959 0.2879,0.72759 0.68572,1.68014 0.88201,2.11669 4.53045,10.03897 7.45928,16.00837 9.73432,19.84053 0.76293,1.28638 1.00763,1.71862 2.82126,4.97499 0.9566,1.71874 1.86191,2.47748 2.51766,2.11042 0.23293,-0.13086 1.92053,-2.90751 3.75195,-6.17264 4.05189,-7.22385 4.11706,-7.33927 6.18455,-10.96363 0.91342,-1.60083 2.4534,-4.33926 3.4227,-6.08548 1.8144,-3.26854 5.1154,-9.11456 8.81474,-15.61043 1.16076,-2.03738 2.73633,-4.83536 3.50252,-6.21778 0.76555,-1.38243 2.37163,-4.23993 3.56784,-6.34996 5.18803,-9.15276 6.84854,-12.09847 9.84384,-17.46264 1.74714,-3.12866 3.26959,-5.80753 3.38331,-5.95306 0.24471,-0.31406 4.02507,-6.99353 6.81217,-12.03866 1.08484,-1.96449 2.08542,-3.70994 2.2223,-3.87862 0.13609,-0.16882 0.58364,-0.94221 0.99193,-1.71979 0.73152,-1.39029 3.54793,-6.41277 6.94944,-12.39317 0.95268,-1.67361 3.37324,-5.95986 5.38079,-9.52507 2.00756,-3.56534 4.65988,-8.26827 5.8943,-10.45105 1.23402,-2.18291 2.84324,-5.04042 3.57554,-6.35009 0.73284,-1.30966 1.65043,-2.91704 2.04041,-3.57189 0.38996,-0.65431 1.37039,-2.38129 2.17872,-3.83648 0.80874,-1.45519 2.21157,-3.95557 3.11792,-5.55627 7.13919,-12.60898 6.42442,-11.34092 9.7703,-17.33022 1.34135,-2.40106 2.65193,-4.72281 2.91235,-5.15937 0.26041,-0.43708 0.77077,-1.32956 1.13457,-1.98439 2.86837,-5.16998 4.60125,-8.24707 5.21552,-9.26047 0.3965,-0.65431 1.41553,-2.4407 2.26365,-3.96878 1.94527,-3.50515 5.03754,-8.99207 8.79747,-15.61043 1.6121,-2.83761 4.04391,-7.18341 5.40396,-9.65737 2.97488,-5.41114 3.23975,-5.59082 4.4183,-2.99531 0.41745,0.91998 2.33575,4.9466 4.26218,8.94849 1.92642,4.00191 4.18785,8.70483 5.02523,10.45106 2.38222,4.96726 5.67734,11.77589 7.93929,16.40423 1.92615,3.9413 3.14958,6.47846 7.20906,14.94903 0.87154,1.81899 2.821,5.85021 4.33193,8.95817 1.51067,3.10798 2.74693,5.68846 2.74693,5.73413 0,0.0392 1.47443,3.09881 3.2764,6.78456 2.8931,5.91693 14.16255,29.27137 18.87373,39.11287 0.94089,1.9645 2.5204,5.2388 3.51103,7.27607 5.69839,11.71844 7.05621,14.52871 8.11817,16.80112 0.64515,1.38244 1.39564,2.93028 1.6656,3.43959 0.26958,0.50906 1.73786,3.54545 3.26175,6.74686 2.51779,5.28958 3.74318,7.82883 9.44877,19.57921 2.40891,4.96073 5.32596,11.02318 6.93844,14.41984 0.72629,1.52795 2.62563,5.44334 4.22293,8.70076 1.5973,3.25755 3.89184,8.02003 5.09917,10.58335 1.98636,4.21728 4.83013,10.11105 9.14256,18.94831 0.85323,1.74622 2.43574,5.02039 3.51888,7.27607 3.57476,7.44266 5.38093,11.17955 8.0886,16.73518 1.47167,3.01965 2.67587,5.5377 2.67587,5.59554 0,0.0655 1.26544,2.70688 2.8121,5.88683 1.54665,3.17982 4.16599,8.56389 5.82088,11.9646 1.65474,3.40085 3.00865,6.21399 3.00865,6.25155 0,0.0393 1.32289,2.79156 2.93968,6.12003 1.61655,3.32836 4.16076,8.61152 5.65365,11.74018 2.63006,5.5123096 5.94558,12.3755096 9.13848,18.9176996 3.4655,7.1000504 7.079,14.5913904 9.57206,19.8439404 1.4506,3.0559 2.97148,6.21098 3.37977,7.01134 0.4083,0.80088 1.39761,2.82453 2.19888,4.49799 2.89533,6.04831 4.81036,10.02012 7.39895,15.34581 1.44982,2.98328 3.1157,6.43607 3.70196,7.67298 0.58627,1.23664 2.35958,4.90249 3.94104,8.14565 1.58161,3.24316 2.87557,5.94141 2.87557,5.9961 0,0.0523 1.38295,2.93773 3.07304,6.4065 1.69022,3.46888 3.67108,7.55716 4.40195,9.08523 2.42133,5.06163 2.85998,5.94442 3.44977,6.94238 0.45933,0.77731 0.52215,1.08877 0.29183,1.45518 -0.26434,0.42138 -1.09139,0.4868 -8.59895,0.67656 -9.5218,0.24078 -35.12799,0.0524 -45.48011,-0.34547 -9.13392,-0.34548 -24.66765,-1.22749 -30.03038,-1.70318 -2.3283,-0.20676 -5.24535,-0.44886 -6.48226,-0.53784 -2.62444,-0.18845 -8.72968,-0.77994 -13.62603,-1.3187 -1.89187,-0.20807 -4.15408,-0.44886 -5.0272,-0.53522 -1.81074,-0.1793 -7.63986,-0.96446 -12.69992,-1.71182 -1.89186,-0.28005 -4.035,-0.58233 -4.76259,-0.67264 -2.33105,-0.2905 -12.58135,-1.96409 -16.27193,-2.6561 -7.77517,-1.45767 -19.24538,-3.77943 -21.8282,-4.4183 -0.87286,-0.21593 -2.77808,-0.66478 -4.23327,-0.99716 -2.30513,-0.52739 -4.76965,-1.14374 -10.05426,-2.51596 -1.70488,-0.44231 -5.73451,-1.54143 -8.59896,-2.34467 -4.12346,-1.1555 -16.10077,-4.92931 -17.35887,-5.46859 -0.68179,-0.29313 -1.66993,-0.6373 -2.19377,-0.76685 -1.08485,-0.26697 -8.547,-2.93694 -10.34545,-3.70183 -0.65431,-0.27874 -2.32162,-0.94876 -3.70405,-1.48883 -3.2353,-1.26412 -10.5081,-4.34017 -13.15545,-5.56373 -1.13195,-0.52345 -2.7129,-1.25104 -3.51338,-1.61601 -5.01268,-2.28918 -17.13117,-8.65013 -21.1667,-11.11034 -18.81811,-11.47177 -29.22337,-19.01794 -44.42157,-32.21592 -3.99745,-3.47137 -16.14328,-15.5845004 -18.52301,-18.4731605 -1.61105,-1.95573993 -2.48142,-2.5416099 -3.30559,-2.22531993 -0.31538,0.11778 -5.1082,5.97217003 -8.5131,10.39414003 -0.57187,0.7432904 -2.04525,2.5884404 -3.27379,4.1010904 -5.22519,6.43318 -15.28025,18.95119 -18.81091,23.41804 -2.37005,2.99858 -9.65004,11.98567 -11.18872,13.81238 -1.35612,1.61 -1.85392,2.4055 -1.85392,2.96246 0,0.62028 0.73937,1.53697 3.9875,4.94266 9.16323,9.60882 21.34049,20.62756 30.89106,27.95216 7.59276,5.82311 11.18087,8.39194 18.25882,13.07223 6.80444,4.49944 6.40021,4.24374 13.89062,8.7878 6.98661,4.23849 21.71659,11.89315 31.26639,16.24811 24.4444,11.14723 50.78278,19.89027 80.12338,26.59695 7.77361,1.77686 10.25947,2.30435 14.55214,3.08796 2.11015,0.38473 4.90812,0.91866 6.21792,1.18561 2.06619,0.42138 6.72016,1.2301 12.17071,2.1167 0.87285,0.14263 2.81601,0.36772 4.31741,0.50119 2.99856,0.26697 4.38714,0.82051 3.71687,1.48347 -0.40699,0.40305 -3.12028,0.77339 -8.56348,1.16859 -2.03728,0.14788 -5.37099,0.43969 -7.40837,0.64777 -2.03727,0.20807 -5.78765,0.51167 -8.33437,0.67394 -2.54657,0.16226 -5.04682,0.35333 -5.55627,0.42529 -0.50905,0.0655 -2.82243,0.21986 -5.14039,0.32978 -9.6757,0.35725 -20.09311,0.43054 -28.88064,-0.0126 z M -235.07997,26.3822 c 0.90818,-0.3481 0.40044,-1.79635 -3.12866,-8.9362 -1.95102,-3.94627 -4.93703,-10.0326804 -6.63562,-13.5251304 -2.99531,-6.15824 -6.42952,-13.1862002 -11.24839,-23.0189196 -1.28376,-2.61933 -3.58523,-7.32226 -5.11449,-10.45105 -1.52939,-3.12865 -4.52874,-9.26034 -6.66507,-13.62602 -2.13658,-4.36569 -4.99082,-10.1998 -6.34302,-12.96466 -1.3522,-2.76485 -4.27396,-8.71803 -6.49286,-13.22912 -2.2189,-4.51121 -4.95235,-10.10714 -6.07422,-12.43557 -1.9636,-4.07517 -3.90821,-8.05496 -11.05367,-22.62186 -1.82017,-3.71074 -4.52797,-9.24725 -6.01745,-12.30315 -6.65643,-13.65901 -10.61829,-21.75898 -12.68237,-25.9293 -1.22487,-2.47382 -3.5567,-7.23628 -5.18293,-10.58334 -1.62635,-3.34694 -3.39091,-6.97836 -3.92142,-8.06976 -0.80742,-1.6605 -1.08092,-1.99773 -1.67386,-2.06631 -0.72629,-0.0785 -1.42861,0.71058 -8.35411,9.44118 -2.96796,3.74175 -4.27592,5.37281 -7.34045,9.15342 -1.74622,2.15438 -3.94903,4.89804 -4.8949,6.09701 -2.37515,3.01062 -6.18115,7.76195 -12.81965,16.00392 -8.08676,10.03974 -12.08631,15.0273 -12.84505,16.01714 -0.36379,0.47502 -2.28577,2.86929 -4.27121,5.32137 -3.26959,4.03853 -5.63989,6.99065 -10.27123,12.79282 -0.87155,1.0914 -3.40256,4.23326 -5.62538,6.98176 -2.22283,2.7485 -4.66733,5.78463 -5.43222,6.74686 -3.10719,3.90886 -4.32735,5.43157 -7.86979,9.82173 -2.03727,2.52486 -4.15893,5.1777 -4.71458,5.89548 -0.55485,0.71713 -1.62726,2.04917 -2.3813,2.95879 -2.63962,3.18466 -3.35517,4.1851 -3.35517,4.69088 0,0.46457 1.52559,2.01699 6.74686,6.86634 1.52808,1.41921 8.06596,6.87381 11.52621,9.61642 10.34531,8.19969 22.19737,15.93483 36.09899,23.5599 2.941,1.6131397 13.97059,7.0861896 17.59481,8.7307296 13.00326,5.90031 27.14279,11.24119 40.28292,15.2157404 5.91091,1.78784 7.90788,2.37398 8.85532,2.59919 1.13065,0.26958 6.14895,1.61915 8.93802,2.40551 1.01811,0.28659 2.68542,0.6988 3.70419,0.91604 1.0181,0.21592 3.10693,0.68441 4.64075,1.04035 6.11781,1.41868 17.75067,3.63836 23.66956,4.51644 1.45533,0.21593 4.2533,0.63207 6.2178,0.92389 1.96463,0.29183 4.94122,0.67264 6.61457,0.84537 1.67359,0.17274 3.63808,0.39913 4.36568,0.50252 1.84424,0.26172 2.6671,0.28789 3.15339,0.10468 z"
           id="path31855"
           sodipodi:nodetypes="sscssssssssssssssssssssssssssssssssssssssssssssssssssssssssssssssscsssssscssssssssssssssssssssssscsssssssscsssssssssssssssssssssssssssssssssssssssssssssssssssssssssssssssssssssssssssssssssssssssssssssssssssssssssssssccssssssssssssssssssssssssssssssssssssssssssss" /></g><path
         style="font-weight:500;font-size:10.6433px;line-height:0px;font-family:Lato;-inkscape-font-specification:'Lato Medium';letter-spacing:0.264583px;fill:#ffffff;stroke-width:0.25854"
         d="m 67.181312,184.8981 q 0,0.85679 -0.276726,1.57521 -0.271404,0.7131 -0.771639,1.23463 -0.500235,0.5162 -1.197371,0.80356 -0.697136,0.28737 -1.5486,0.28737 -0.846143,0 -1.5486,-0.28737 -0.697137,-0.28736 -1.197372,-0.80356 -0.494913,-0.52153 -0.771639,-1.23463 -0.276726,-0.71842 -0.276726,-1.57521 0,-0.85146 0.276726,-1.56988 0.276726,-0.71842 0.771639,-1.23462 0.500235,-0.52153 1.197372,-0.8089 0.702457,-0.29269 1.5486,-0.29269 0.851464,0 1.5486,0.29269 0.697136,0.28737 1.197371,0.8089 0.500235,0.5162 0.771639,1.23462 0.276726,0.71842 0.276726,1.56988 z m -1.160119,0 q 0,-0.68117 -0.186258,-1.22397 -0.186258,-0.54281 -0.532165,-0.92065 -0.340586,-0.37784 -0.830178,-0.58006 -0.48427,-0.20222 -1.085616,-0.20222 -0.601347,0 -1.090938,0.20222 -0.484271,0.20222 -0.830178,0.58006 -0.345907,0.37784 -0.532165,0.92065 -0.186258,0.5428 -0.186258,1.22397 0,0.6865 0.186258,1.22931 0.186258,0.53748 0.532165,0.91532 0.345907,0.37784 0.830178,0.58006 0.489591,0.1969 1.090938,0.1969 0.601346,0 1.085616,-0.1969 0.489592,-0.20222 0.830178,-0.58006 0.345907,-0.37784 0.532165,-0.91532 0.186258,-0.54281 0.186258,-1.22931 z m 10.881271,-3.82094 v 7.64189 h -0.989827 v -5.43873 q 0,-0.12239 0.0053,-0.26076 0.01064,-0.13836 0.02129,-0.28205 l -2.543749,4.66709 q -0.133041,0.26076 -0.409767,0.26076 h -0.15965 q -0.276726,0 -0.404445,-0.26076 l -2.591644,-4.68305 q 0.03193,0.29801 0.03193,0.55877 v 5.43873 h -0.995148 v -7.64189 h 0.84082 q 0.149007,0 0.228831,0.0319 0.08515,0.0266 0.15965,0.15965 l 2.554392,4.57662 q 0.0745,0.13836 0.138363,0.29269 0.06386,0.15433 0.122398,0.30865 0.111754,-0.31397 0.26076,-0.60666 l 2.506498,-4.5713 q 0.06918,-0.13304 0.149006,-0.15965 0.08515,-0.0319 0.234152,-0.0319 z m 8.412042,0 v 7.64189 h -0.57474 q -0.13304,0 -0.22351,-0.0479 -0.0851,-0.0479 -0.17561,-0.15432 l -4.315863,-5.58241 q 0.01064,0.14368 0.01597,0.28204 0.01064,0.13837 0.01064,0.26076 v 5.24183 h -0.995148 v -7.64189 h 0.585381 q 0.149007,0 0.22351,0.0373 0.0745,0.0319 0.164971,0.15433 l 4.326499,5.58773 q -0.016,-0.15433 -0.0266,-0.29801 -0.005,-0.14901 -0.005,-0.27673 v -5.20457 z m 3.29259,7.64189 h -1.13883 v -7.64189 h 1.13883 z m 7.48607,-1.63907 q 0.0958,0 0.16497,0.0745 l 0.44702,0.4896 q -0.46831,0.55345 -1.14416,0.85678 -0.67053,0.30334 -1.61778,0.30334 -0.83018,0 -1.50603,-0.28737 -0.67053,-0.28737 -1.14947,-0.80357 -0.47363,-0.5162 -0.73439,-1.23463 -0.26076,-0.71842 -0.26076,-1.58053 0,-0.8621 0.2714,-1.58053 0.27673,-0.71842 0.77164,-1.23462 0.49491,-0.5162 1.18141,-0.80357 0.69181,-0.28737 1.52731,-0.28737 0.81421,0 1.44749,0.26609 0.63328,0.26608 1.10158,0.70778 l -0.37251,0.52684 q -0.0373,0.0585 -0.0958,0.0958 -0.0532,0.0373 -0.14369,0.0373 -0.10111,0 -0.23947,-0.10111 -0.13304,-0.10111 -0.35655,-0.22351 -0.21819,-0.12772 -0.54281,-0.22883 -0.32462,-0.10111 -0.80889,-0.10111 -0.56942,0 -1.04305,0.20222 -0.47362,0.1969 -0.81953,0.57474 -0.34059,0.37251 -0.53216,0.92064 -0.18626,0.54281 -0.18626,1.2293 0,0.69714 0.1969,1.23995 0.1969,0.54281 0.54281,0.92064 0.3459,0.37784 0.81421,0.57474 0.4683,0.1969 1.01111,0.1969 0.32995,0 0.59071,-0.0373 0.26608,-0.0426 0.48427,-0.1224 0.22351,-0.0798 0.42041,-0.20222 0.1969,-0.12772 0.38848,-0.30333 0.0426,-0.0373 0.0905,-0.0585 0.0479,-0.0266 0.10111,-0.0266 z m 8.278994,-6.00282 v 7.64189 h -1.13351 v -3.44311 h -3.985924 v 3.44311 h -1.13883 v -7.64189 h 1.13883 v 3.37393 h 3.985924 v -3.37393 z m 6.21417,4.79481 -1.13351,-2.96416 q -0.1224,-0.30334 -0.24479,-0.76632 -0.0585,0.22883 -0.1224,0.42573 -0.0585,0.1969 -0.11708,0.35123 l -1.12819,2.95352 z m 2.24042,2.84708 H 111.954 q -0.14901,0 -0.2448,-0.0745 -0.0958,-0.0745 -0.13836,-0.19158 l -0.67585,-1.77211 h -3.36861 l -0.67585,1.77211 q -0.0373,0.10111 -0.13836,0.18625 -0.10111,0.0798 -0.24479,0.0798 h -0.87275 l 3.04398,-7.64189 h 1.14415 z m 2.35598,0 h -1.13883 v -7.64189 h 1.13883 z m 8.40672,-7.64189 v 7.64189 h -0.57474 q -0.13304,0 -0.22351,-0.0479 -0.0851,-0.0479 -0.17562,-0.15432 l -4.31585,-5.58241 q 0.0106,0.14368 0.016,0.28204 0.0106,0.13837 0.0106,0.26076 v 5.24183 h -0.99514 v -7.64189 h 0.58538 q 0.149,0 0.22351,0.0373 0.0745,0.0319 0.16497,0.15433 l 4.3265,5.58773 q -0.016,-0.15433 -0.0266,-0.29801 -0.005,-0.14901 -0.005,-0.27673 v -5.20457 z m 11.34275,3.92206 v 2.98012 q -0.58006,0.41509 -1.23462,0.62263 -0.65457,0.20223 -1.42621,0.20223 -0.92596,0 -1.67632,-0.28737 -0.74503,-0.28737 -1.27187,-0.80357 -0.52684,-0.5162 -0.81421,-1.23463 -0.28205,-0.71842 -0.28205,-1.58053 0,-0.86742 0.2714,-1.58585 0.27673,-0.72374 0.78761,-1.23462 0.51088,-0.5162 1.23462,-0.79825 0.72907,-0.28737 1.63375,-0.28737 0.45766,0 0.84614,0.0692 0.3938,0.0692 0.72907,0.19691 0.33526,0.12772 0.61731,0.30865 0.28737,0.17562 0.53216,0.39913 l -0.32462,0.51087 q -0.0745,0.1224 -0.1969,0.15433 -0.1224,0.0319 -0.26608,-0.0585 -0.13836,-0.0798 -0.30866,-0.18625 -0.16497,-0.10644 -0.39912,-0.19691 -0.22883,-0.0905 -0.53749,-0.15432 -0.30865,-0.0639 -0.72906,-0.0639 -0.62796,0 -1.13351,0.20754 -0.50556,0.20222 -0.86211,0.58538 -0.35655,0.38316 -0.54813,0.92597 -0.19158,0.53749 -0.19158,1.20801 0,0.70246 0.20222,1.26124 0.20222,0.55345 0.56942,0.94193 0.37251,0.38316 0.89936,0.58538 0.53216,0.20222 1.18672,0.20222 0.25544,0 0.47363,-0.0266 0.22351,-0.0319 0.42573,-0.0851 0.20223,-0.0532 0.38848,-0.13304 0.19158,-0.0798 0.37784,-0.17562 v -1.60182 h -1.12819 q -0.10643,0 -0.17561,-0.0639 -0.0639,-0.0639 -0.0639,-0.15965 v -0.64392 z m 8.91226,-0.10112 q 0,0.85679 -0.27672,1.57521 -0.27141,0.7131 -0.77164,1.23463 -0.50024,0.5162 -1.19737,0.80356 -0.69714,0.28737 -1.5486,0.28737 -0.84615,0 -1.5486,-0.28737 -0.69714,-0.28736 -1.19737,-0.80356 -0.49492,-0.52153 -0.77164,-1.23463 -0.27673,-0.71842 -0.27673,-1.57521 0,-0.85146 0.27673,-1.56988 0.27672,-0.71842 0.77164,-1.23462 0.50023,-0.52153 1.19737,-0.8089 0.70245,-0.29269 1.5486,-0.29269 0.85146,0 1.5486,0.29269 0.69713,0.28737 1.19737,0.8089 0.50023,0.5162 0.77164,1.23462 0.27672,0.71842 0.27672,1.56988 z m -1.16012,0 q 0,-0.68117 -0.18625,-1.22397 -0.18626,-0.54281 -0.53217,-0.92065 -0.34058,-0.37784 -0.83018,-0.58006 -0.48427,-0.20222 -1.08561,-0.20222 -0.60135,0 -1.09094,0.20222 -0.48427,0.20222 -0.83018,0.58006 -0.34591,0.37784 -0.53216,0.92065 -0.18626,0.5428 -0.18626,1.22397 0,0.6865 0.18626,1.22931 0.18625,0.53748 0.53216,0.91532 0.34591,0.37784 0.83018,0.58006 0.48959,0.1969 1.09094,0.1969 0.60134,0 1.08561,-0.1969 0.4896,-0.20222 0.83018,-0.58006 0.34591,-0.37784 0.53217,-0.91532 0.18625,-0.54281 0.18625,-1.22931 z m 8.92291,-3.82094 -3.10784,7.64189 h -1.01644 l -3.10784,-7.64189 h 0.90468 q 0.149,0 0.23947,0.0745 0.0958,0.0745 0.14369,0.19158 l 2.0648,5.19393 q 0.0745,0.19158 0.14368,0.42041 0.0745,0.22883 0.13304,0.47895 0.0532,-0.25012 0.11708,-0.47895 0.0639,-0.22883 0.13836,-0.42041 l 2.05948,-5.19393 q 0.0373,-0.10643 0.13304,-0.18626 0.10111,-0.0798 0.2448,-0.0798 z m 5.95875,6.72124 -0.005,0.92065 h -4.73627 v -7.64189 h 4.73627 v 0.92065 h -3.59744 v 2.42135 h 2.89498 v 0.88871 h -2.89498 v 2.49053 z m 3.83008,-3.03866 q 0.43638,0 0.76632,-0.10643 0.33526,-0.10643 0.55877,-0.29801 0.22351,-0.1969 0.33526,-0.46299 0.11176,-0.2714 0.11176,-0.59602 0,-0.65989 -0.43638,-0.99515 -0.43105,-0.33526 -1.29848,-0.33526 h -1.06965 v 2.79386 z m 3.56551,3.95931 h -1.01112 q -0.30333,0 -0.44169,-0.23947 l -1.88919,-2.65019 q -0.0905,-0.13304 -0.1969,-0.18625 -0.10643,-0.0585 -0.3193,-0.0585 h -0.73971 v 3.13445 h -1.13351 v -7.64189 h 2.20316 q 0.73971,0 1.27188,0.15433 0.53748,0.149 0.88339,0.43105 0.35123,0.27673 0.5162,0.67053 0.17029,0.3938 0.17029,0.88339 0,0.39913 -0.1224,0.75036 -0.12239,0.35122 -0.36187,0.63327 -0.23415,0.27673 -0.57474,0.47895 -0.34058,0.20222 -0.77163,0.30866 0.21286,0.12772 0.36719,0.35655 z m 7.50203,-7.64189 v 7.64189 h -0.57474 q -0.13304,0 -0.22351,-0.0479 -0.0851,-0.0479 -0.17561,-0.15432 l -4.31586,-5.58241 q 0.0106,0.14368 0.016,0.28204 0.0106,0.13837 0.0106,0.26076 v 5.24183 h -0.99515 v -7.64189 h 0.58538 q 0.14901,0 0.22351,0.0373 0.0745,0.0319 0.16497,0.15433 l 4.3265,5.58773 q -0.016,-0.15433 -0.0266,-0.29801 -0.005,-0.14901 -0.005,-0.27673 v -5.20457 z m 6.21417,4.79481 -1.13351,-2.96416 q -0.12239,-0.30334 -0.24479,-0.76632 -0.0585,0.22883 -0.1224,0.42573 -0.0585,0.1969 -0.11708,0.35123 l -1.12819,2.95352 z m 2.24042,2.84708 h -0.87275 q -0.14901,0 -0.2448,-0.0745 -0.0958,-0.0745 -0.13836,-0.19158 l -0.67585,-1.77211 h -3.3686 l -0.67585,1.77211 q -0.0373,0.10111 -0.13837,0.18625 -0.10111,0.0798 -0.24479,0.0798 h -0.87275 l 3.04398,-7.64189 h 1.14416 z m 7.47542,-7.64189 v 7.64189 h -0.57474 q -0.13304,0 -0.22351,-0.0479 -0.0851,-0.0479 -0.17562,-0.15432 l -4.31585,-5.58241 q 0.0106,0.14368 0.016,0.28204 0.0106,0.13837 0.0106,0.26076 v 5.24183 h -0.99514 v -7.64189 h 0.58538 q 0.149,0 0.22351,0.0373 0.0745,0.0319 0.16497,0.15433 l 4.3265,5.58773 q -0.016,-0.15433 -0.0266,-0.29801 -0.005,-0.14901 -0.005,-0.27673 v -5.20457 z m 7.49137,6.00282 q 0.0958,0 0.16497,0.0745 l 0.44702,0.4896 q -0.46831,0.55345 -1.14416,0.85678 -0.67052,0.30334 -1.61778,0.30334 -0.83018,0 -1.50603,-0.28737 -0.67052,-0.28737 -1.14947,-0.80357 -0.47363,-0.5162 -0.73439,-1.23463 -0.26076,-0.71842 -0.26076,-1.58053 0,-0.8621 0.2714,-1.58053 0.27673,-0.71842 0.77164,-1.23462 0.49492,-0.5162 1.18141,-0.80357 0.69181,-0.28737 1.52731,-0.28737 0.81422,0 1.44749,0.26609 0.63328,0.26608 1.10158,0.70778 l -0.37251,0.52684 q -0.0373,0.0585 -0.0958,0.0958 -0.0532,0.0373 -0.14369,0.0373 -0.10111,0 -0.23947,-0.10111 -0.13304,-0.10111 -0.35655,-0.22351 -0.21819,-0.12772 -0.54281,-0.22883 -0.32462,-0.10111 -0.80889,-0.10111 -0.56942,0 -1.04304,0.20222 -0.47363,0.1969 -0.81954,0.57474 -0.34058,0.37251 -0.53216,0.92064 -0.18626,0.54281 -0.18626,1.2293 0,0.69714 0.1969,1.23995 0.1969,0.54281 0.54281,0.92064 0.34591,0.37784 0.81421,0.57474 0.46831,0.1969 1.01111,0.1969 0.32995,0 0.59071,-0.0373 0.26608,-0.0426 0.48427,-0.1224 0.22351,-0.0798 0.42041,-0.20222 0.1969,-0.12772 0.38848,-0.30333 0.0426,-0.0373 0.0905,-0.0585 0.0479,-0.0266 0.10111,-0.0266 z m 6.76233,0.71842 -0.005,0.92065 h -4.73626 v -7.64189 h 4.73626 v 0.92065 h -3.59743 v 2.42135 h 2.89498 v 0.88871 h -2.89498 v 2.49053 z m 8.32005,-1.92643 -1.13352,-2.96416 q -0.12239,-0.30334 -0.24479,-0.76632 -0.0585,0.22883 -0.1224,0.42573 -0.0585,0.1969 -0.11708,0.35123 l -1.12819,2.95352 z m 2.24041,2.84708 h -0.87275 q -0.14901,0 -0.2448,-0.0745 -0.0958,-0.0745 -0.13836,-0.19158 l -0.67585,-1.77211 h -3.3686 l -0.67585,1.77211 q -0.0373,0.10111 -0.13837,0.18625 -0.10111,0.0798 -0.24479,0.0798 h -0.87275 l 3.04398,-7.64189 h 1.14416 z m 7.24658,-3.71983 v 2.98012 q -0.58006,0.41509 -1.23462,0.62263 -0.65457,0.20223 -1.4262,0.20223 -0.92597,0 -1.67632,-0.28737 -0.74504,-0.28737 -1.27188,-0.80357 -0.52684,-0.5162 -0.81421,-1.23463 -0.28205,-0.71842 -0.28205,-1.58053 0,-0.86742 0.27141,-1.58585 0.27672,-0.72374 0.7876,-1.23462 0.51088,-0.5162 1.23462,-0.79825 0.72907,-0.28737 1.63375,-0.28737 0.45766,0 0.84614,0.0692 0.3938,0.0692 0.72907,0.19691 0.33526,0.12772 0.61731,0.30865 0.28737,0.17562 0.53216,0.39913 l -0.32462,0.51087 q -0.0745,0.1224 -0.1969,0.15433 -0.1224,0.0319 -0.26608,-0.0585 -0.13836,-0.0798 -0.30866,-0.18625 -0.16497,-0.10644 -0.39912,-0.19691 -0.22883,-0.0905 -0.53749,-0.15432 -0.30865,-0.0639 -0.72906,-0.0639 -0.62796,0 -1.13351,0.20754 -0.50556,0.20222 -0.86211,0.58538 -0.35655,0.38316 -0.54813,0.92597 -0.19158,0.53749 -0.19158,1.20801 0,0.70246 0.20222,1.26124 0.20223,0.55345 0.56942,0.94193 0.37251,0.38316 0.89936,0.58538 0.53216,0.20222 1.18673,0.20222 0.25544,0 0.47362,-0.0266 0.22351,-0.0319 0.42573,-0.0851 0.20223,-0.0532 0.38849,-0.13304 0.19157,-0.0798 0.37783,-0.17562 v -1.60182 h -1.12819 q -0.10643,0 -0.17561,-0.0639 -0.0639,-0.0639 -0.0639,-0.15965 v -0.64392 z m 8.02887,0 v 2.98012 q -0.58006,0.41509 -1.23462,0.62263 -0.65457,0.20223 -1.4262,0.20223 -0.92597,0 -1.67632,-0.28737 -0.74504,-0.28737 -1.27188,-0.80357 -0.52684,-0.5162 -0.81421,-1.23463 -0.28205,-0.71842 -0.28205,-1.58053 0,-0.86742 0.27141,-1.58585 0.27672,-0.72374 0.7876,-1.23462 0.51088,-0.5162 1.23462,-0.79825 0.72907,-0.28737 1.63375,-0.28737 0.45766,0 0.84614,0.0692 0.3938,0.0692 0.72907,0.19691 0.33526,0.12772 0.61731,0.30865 0.28737,0.17562 0.53216,0.39913 l -0.32462,0.51087 q -0.0745,0.1224 -0.1969,0.15433 -0.1224,0.0319 -0.26608,-0.0585 -0.13836,-0.0798 -0.30866,-0.18625 -0.16497,-0.10644 -0.39912,-0.19691 -0.22883,-0.0905 -0.53749,-0.15432 -0.30865,-0.0639 -0.72906,-0.0639 -0.62796,0 -1.13351,0.20754 -0.50556,0.20222 -0.86211,0.58538 -0.35655,0.38316 -0.54813,0.92597 -0.19158,0.53749 -0.19158,1.20801 0,0.70246 0.20222,1.26124 0.20222,0.55345 0.56942,0.94193 0.37251,0.38316 0.89936,0.58538 0.53216,0.20222 1.18673,0.20222 0.25543,0 0.47362,-0.0266 0.22351,-0.0319 0.42573,-0.0851 0.20223,-0.0532 0.38848,-0.13304 0.19158,-0.0798 0.37784,-0.17562 v -1.60182 h -1.12819 q -0.10643,0 -0.17561,-0.0639 -0.0639,-0.0639 -0.0639,-0.15965 v -0.64392 z m 3.95781,-0.23948 q 0.43637,0 0.76632,-0.10643 0.33526,-0.10643 0.55877,-0.29801 0.22351,-0.1969 0.33526,-0.46299 0.11176,-0.2714 0.11176,-0.59602 0,-0.65989 -0.43638,-0.99515 -0.43105,-0.33526 -1.29848,-0.33526 h -1.06965 v 2.79386 z m 3.5655,3.95931 h -1.01111 q -0.30333,0 -0.4417,-0.23947 l -1.88918,-2.65019 q -0.0905,-0.13304 -0.1969,-0.18625 -0.10644,-0.0585 -0.3193,-0.0585 h -0.73971 v 3.13445 h -1.13351 v -7.64189 h 2.20316 q 0.73971,0 1.27187,0.15433 0.53749,0.149 0.8834,0.43105 0.35123,0.27673 0.5162,0.67053 0.17029,0.3938 0.17029,0.88339 0,0.39913 -0.1224,0.75036 -0.1224,0.35122 -0.36187,0.63327 -0.23415,0.27673 -0.57474,0.47895 -0.34058,0.20222 -0.77164,0.30866 0.21287,0.12772 0.3672,0.35655 z m 5.98537,-0.92065 -0.005,0.92065 h -4.73626 v -7.64189 h 4.73626 v 0.92065 h -3.59743 v 2.42135 h 2.89498 v 0.88871 h -2.89498 v 2.49053 z m 7.73618,-2.79918 v 2.98012 q -0.58006,0.41509 -1.23462,0.62263 -0.65457,0.20223 -1.42621,0.20223 -0.92596,0 -1.67632,-0.28737 -0.74503,-0.28737 -1.27187,-0.80357 -0.52684,-0.5162 -0.81421,-1.23463 -0.28205,-0.71842 -0.28205,-1.58053 0,-0.86742 0.2714,-1.58585 0.27673,-0.72374 0.78761,-1.23462 0.51088,-0.5162 1.23462,-0.79825 0.72907,-0.28737 1.63375,-0.28737 0.45766,0 0.84614,0.0692 0.3938,0.0692 0.72907,0.19691 0.33526,0.12772 0.61731,0.30865 0.28737,0.17562 0.53216,0.39913 l -0.32462,0.51087 q -0.0745,0.1224 -0.1969,0.15433 -0.1224,0.0319 -0.26608,-0.0585 -0.13837,-0.0798 -0.30866,-0.18625 -0.16497,-0.10644 -0.39912,-0.19691 -0.22883,-0.0905 -0.53749,-0.15432 -0.30865,-0.0639 -0.72906,-0.0639 -0.62796,0 -1.13352,0.20754 -0.50555,0.20222 -0.8621,0.58538 -0.35655,0.38316 -0.54813,0.92597 -0.19158,0.53749 -0.19158,1.20801 0,0.70246 0.20222,1.26124 0.20222,0.55345 0.56942,0.94193 0.37251,0.38316 0.89936,0.58538 0.53216,0.20222 1.18672,0.20222 0.25544,0 0.47363,-0.0266 0.22351,-0.0319 0.42573,-0.0851 0.20222,-0.0532 0.38848,-0.13304 0.19158,-0.0798 0.37784,-0.17562 v -1.60182 h -1.12819 q -0.10643,0 -0.17561,-0.0639 -0.0639,-0.0639 -0.0639,-0.15965 v -0.64392 z m 5.78313,0.87275 -1.13351,-2.96416 q -0.1224,-0.30334 -0.2448,-0.76632 -0.0585,0.22883 -0.1224,0.42573 -0.0585,0.1969 -0.11707,0.35123 l -1.12819,2.95352 z m 2.24041,2.84708 h -0.87275 q -0.149,0 -0.24479,-0.0745 -0.0958,-0.0745 -0.13837,-0.19158 l -0.67584,-1.77211 h -3.36861 l -0.67585,1.77211 q -0.0373,0.10111 -0.13836,0.18625 -0.10111,0.0798 -0.2448,0.0798 h -0.87275 l 3.04399,-7.64189 h 1.14415 z m 5.67671,-6.69464 h -2.42668 v 6.69464 h -1.12819 v -6.69464 h -2.43731 v -0.94725 h 5.99218 z m 8.16723,2.87369 q 0,0.85679 -0.27673,1.57521 -0.2714,0.7131 -0.77164,1.23463 -0.50023,0.5162 -1.19737,0.80356 -0.69714,0.28737 -1.5486,0.28737 -0.84614,0 -1.5486,-0.28737 -0.69714,-0.28736 -1.19737,-0.80356 -0.49491,-0.52153 -0.77164,-1.23463 -0.27673,-0.71842 -0.27673,-1.57521 0,-0.85146 0.27673,-1.56988 0.27673,-0.71842 0.77164,-1.23462 0.50023,-0.52153 1.19737,-0.8089 0.70246,-0.29269 1.5486,-0.29269 0.85146,0 1.5486,0.29269 0.69714,0.28737 1.19737,0.8089 0.50024,0.5162 0.77164,1.23462 0.27673,0.71842 0.27673,1.56988 z m -1.16012,0 q 0,-0.68117 -0.18626,-1.22397 -0.18626,-0.54281 -0.53217,-0.92065 -0.34058,-0.37784 -0.83017,-0.58006 -0.48427,-0.20222 -1.08562,-0.20222 -0.60135,0 -1.09094,0.20222 -0.48427,0.20222 -0.83018,0.58006 -0.3459,0.37784 -0.53216,0.92065 -0.18626,0.5428 -0.18626,1.22397 0,0.6865 0.18626,1.22931 0.18626,0.53748 0.53216,0.91532 0.34591,0.37784 0.83018,0.58006 0.48959,0.1969 1.09094,0.1969 0.60135,0 1.08562,-0.1969 0.48959,-0.20222 0.83017,-0.58006 0.34591,-0.37784 0.53217,-0.91532 0.18626,-0.54281 0.18626,-1.22931 z m 5.01148,-0.13836 q 0.43637,0 0.76632,-0.10643 0.33526,-0.10643 0.55877,-0.29801 0.22351,-0.1969 0.33526,-0.46299 0.11176,-0.2714 0.11176,-0.59602 0,-0.65989 -0.43638,-0.99515 -0.43105,-0.33526 -1.29848,-0.33526 h -1.06965 v 2.79386 z m 3.5655,3.95931 h -1.01111 q -0.30333,0 -0.4417,-0.23947 l -1.88918,-2.65019 q -0.0905,-0.13304 -0.1969,-0.18625 -0.10644,-0.0585 -0.3193,-0.0585 h -0.73971 v 3.13445 h -1.13351 v -7.64189 h 2.20316 q 0.73971,0 1.27187,0.15433 0.53749,0.149 0.8834,0.43105 0.35123,0.27673 0.5162,0.67053 0.17029,0.3938 0.17029,0.88339 0,0.39913 -0.1224,0.75036 -0.1224,0.35122 -0.36187,0.63327 -0.23415,0.27673 -0.57474,0.47895 -0.34058,0.20222 -0.77164,0.30866 0.21287,0.12772 0.3672,0.35655 z"
         id="text1"
         aria-label="OMNICHAIN GOVERNANCE AGGREGATOR" /></g></g></svg>
